<?xml version="1.0" encoding="utf-8"?>
<!-- Generator: Adobe Illustrator 18.1.1, SVG Export Plug-In . SVG Version: 6.00 Build 0)  -->
<svg version="1.1" id="Layer_1" xmlns="http://www.w3.org/2000/svg" xmlns:xlink="http://www.w3.org/1999/xlink" x="0px" y="0px"
	 width="115px" height="105.6px" viewBox="0 0 115 105.6" enable-background="new 0 0 115 105.6" xml:space="preserve">
<g>
	<path fill="#579E76" d="M78.8,97.2L58.9,81.3H24.8c-7.1,0-12.9-5.8-12.9-12.9V24c0-7.1,5.8-12.9,12.9-12.9h65
		c7.1,0,12.9,5.8,12.9,12.9v44.5c0,7.1-5.8,12.9-12.9,12.9H83v13.9c0,1-0.6,1.9-1.5,2.3c-0.4,0.2-0.7,0.3-1.1,0.3
		C79.9,97.8,79.3,97.6,78.8,97.2z M24.8,16.2c-4.3,0-7.7,3.5-7.7,7.7v44.5c0,4.3,3.5,7.7,7.7,7.7h35.1c0.6,0,1.2,0.2,1.6,0.6
		l16.4,13.1V78.8c0-1.4,1.2-2.6,2.6-2.6h9.3c4.3,0,7.7-3.5,7.7-7.7V24c0-4.3-3.5-7.7-7.7-7.7H24.8z"/>
</g>
<path fill="#579E76" d="M86.9,13.3H27.3c-6.3,0-11.4,5.1-11.4,11.4v42.1c0,6.3,5.1,11.4,11.4,11.4h59.6c6.3,0,11.4-5.1,11.4-11.4
	V24.7C98.3,18.4,93.1,13.3,86.9,13.3z M43.2,55.3l-3.4,3.4c-0.5,0.5-1.2,0.5-1.7,0L25.5,45.9c-0.5-0.5-0.5-1.2,0-1.7l12.7-12.7
	c0.5-0.5,1.2-0.5,1.7,0l3.4,3.4c0.5,0.5,0.5,1.2,0,1.7l-7.6,7.7c-0.5,0.5-0.5,1.2,0,1.7l7.6,7.6C43.6,54.1,43.6,54.8,43.2,55.3z
	 M64,27.8L52.6,66.4c-0.2,0.6-0.8,1-1.5,0.8l-4.6-1.3c-0.6-0.2-1-0.8-0.8-1.5l11.4-38.6c0.2-0.6,0.8-1,1.5-0.8l4.6,1.3
	C63.8,26.5,64.2,27.1,64,27.8z M89.5,45.9L76.9,58.6c-0.5,0.5-1.2,0.5-1.7,0l-3.4-3.4c-0.5-0.5-0.5-1.2,0-1.7l7.6-7.6
	c0.5-0.5,0.5-1.2,0-1.7l-7.6-7.7c-0.5-0.5-0.5-1.2,0-1.7l3.4-3.4c0.5-0.5,1.2-0.5,1.7,0l12.7,12.7C90,44.7,90,45.5,89.5,45.9z"/>
<path fill="#579E76" d="M72.4,87L53.6,76.6c-1.9-1-2.6-3.4-1.5-5.3l8.3-15.2c1-1.9,3.4-2.6,5.3-1.5L84.5,65c1.9,1,2.6,3.4,1.5,5.3
	l-8.3,15.2C76.7,87.3,74.3,88,72.4,87z"/>
<path fill="#579E76" d="M75.4,90.5l-3.7-2c-1.7-0.9-2.3-3-1.4-4.7l1.8-3.3c0.9-1.7,3-2.3,4.7-1.4l3.7,2c1.7,0.9,2.3,3,1.4,4.7
	L80,89.2C79.1,90.8,77,91.4,75.4,90.5z"/>
</svg>
